:SAMPLES-PER-SECOND 30
:FULLY-SPECIFIED
:DEGREES
62
root  62.0773 37.8519 -6.78116 -142.21 -86.1205 147.31
RightUpLeg  -31.6037 -0.49862 -6.25814
RightLeg  73.1716 -3.62687 -14.2193
RightFoot  -6.55842 -0.109448 1.5561
RightToes  4.07452e-010 0 -3.6325e-017
Spine  12.461 -1.03671 -5.47299
Spine1  3.66231 -2.19328 2.53366
HEad  -26.2562 6.66572 -3.36581
LeftShoulder1  9.00423 -12.7395 -48.3897
LeftArm  -1.66697 19.1746 -23.391
LeftForeArm  175.632 -66.08 -158.532
LeftHand  -0.244104 0.0205437 5.32207
RightShoulder  5.93247 9.08589 40.9217
RightArm  3.37726 -45.1753 25.6112
RightForeArm  37.2779 77.3629 62.447
RightHand  -2.11398 3.89065 -26.1061
LeftUpLeg  -4.42524 13.8597 -5.50754
LeftLeg  26.7934 4.85674 3.02748
LeftFoot  -25.5781 0.0437602 -0.860221
LeftToes  1.0186e-010 1.09309e-010 2.97394e-011
63
root  60.0132 38.6212 -6.71663 169.353 -86.6097 -163.754
RightUpLeg  -32.1023 -2.58828 -1.28454
RightLeg  65.0557 -6.44084 -15.4059
RightFoot  -8.27362 -0.121808 2.44555
RightToes  4.07452e-010 0 -3.6325e-017
Spine  10.5393 -2.89737 -2.71845
Spine1  3.31333 -4.26925 4.49721
HEad  -23.4332 10.6175 -4.76946
LeftShoulder1  8.74265 -12.6768 -47.1501
LeftArm  0.419733 19.6524 -25.9561
LeftForeArm  174.498 -62.9947 -161.12
LeftHand  -0.244104 0.0205437 5.32207
RightShoulder  5.30599 8.8235 37.0481
RightArm  9.5873 -50.5757 21.3955
RightForeArm  76.1232 79.0784 94.4855
RightHand  -0.987558 0.0797893 -20.5639
LeftUpLeg  1.25525 13.9648 -1.31723
LeftLeg  20.5746 4.82961 2.19942
LeftFoot  -21.3268 -0.107793 -2.9107
LeftToes  1.0186e-010 1.09309e-010 2.97394e-011
64
root  57.838 39.4837 -6.74266 146.664 -84.8451 -141.039
RightUpLeg  -29.9599 -4.27426 2.56752
RightLeg  52.5981 -8.64002 -12.4442
RightFoot  -9.65609 -0.116338 3.41555
RightToes  4.07452e-010 0 -3.6325e-017
Spine  8.89216 -3.81841 -0.232812
Spine1  3.12541 -5.17178 5.27044
HEad  -19.2244 12.8598 -6.64389
LeftShoulder1  8.59689 -12.5946 -46.587
LeftArm  3.57578 18.8541 -27.4318
LeftForeArm  173.867 -61.2023 -162.372
LeftHand  -0.244104 0.0205437 5.32207
RightShoulder  5.12455 9.13929 34.582
RightArm  9.69349 -55.1532 20.3569
RightForeArm  102.918 78.2231 115.546
RightHand  -0.251105 -3.46815 -15.4836
LeftUpLeg  6.85797 14.0157 2.3434
LeftLeg  15.0611 5.47125 0.726694
LeftFoot  -12.8758 -6.86705e-005 -6.3688
LeftToes  1.0186e-010 1.09309e-010 2.97394e-011
65
root  55.6418 40.1105 -6.85034 150.483 -83.108 -144.927
RightUpLeg  -26.7916 -4.16686 4.46473
RightLeg  38.5436 -7.56535 -6.72946
RightFoot  -10.6105 -0.102174 4.85165
RightToes  4.07452e-010 0 -3.6325e-017
Spine  6.943 -3.67365 1.31401
Spine1  3.64979 -4.89519 5.06216
HEad  -14.7391 13.6082 -8.0262
LeftShoulder1  8.44811 -12.5077 -46.013
LeftArm  6.62189 16.5985 -28.8016
LeftForeArm  176.864 -60.7267 -162.965
LeftHand  -0.244104 0.0205437 5.32207
RightShoulder  5.23685 9.693 33.7333
RightArm  5.04192 -58.5273 22.7887
RightForeArm  111.32 76.7703 126.068
RightHand  -0.132317 -4.46187 -14.9183
LeftUpLeg  10.3454 14.9763 4.59414
LeftLeg  13.3564 5.97415 -0.304739
LeftFoot  -2.73492 0.578558 -7.79435
LeftToes  1.0186e-010 1.09309e-010 2.97394e-011
66
root  53.5158 40.3286 -6.97837 158.182 -82.2505 -152.793
RightUpLeg  -23.7554 -3.13313 4.59931
RightLeg  26.9946 -4.718 -2.78871
RightFoot  -12.1409 -0.0352727 6.54832
RightToes  4.07452e-010 0 -3.6325e-017
Spine  5.1659 -3.28213 2.01737
Spine1  4.51118 -4.37881 4.52792
HEad  -11.3623 13.6497 -8.4582
LeftShoulder1  8.34663 -12.4896 -45.495
LeftArm  8.5126 14.2386 -30.2147
LeftForeArm  -179.741 -60.9637 -163.113
LeftHand  -0.244104 0.0205437 5.32207
RightShoulder  5.35195 9.97774 33.7518
RightArm  -1.24162 -59.2442 27.6143
RightForeArm  112.475 75.5324 131.428
RightHand  -0.182367 -4.20272 -16.9218
LeftUpLeg  10.6534 17.6004 5.05594
LeftLeg  17.4401 3.21128 0.808817
LeftFoot  4.29204 0.879441 -6.57274
LeftToes  1.0186e-010 1.09309e-010 2.97394e-011
67
root  51.5306 40.1111 -7.10077 160.903 -82.5771 -156.248
RightUpLeg  -21.1696 -3.27496 4.32749
RightLeg  20.9605 -2.94658 -1.42841
RightFoot  -13.8537 0.0654073 7.38016
RightToes  4.07452e-010 0 -3.6325e-017
Spine  4.81769 -3.31489 2.83008
Spine1  4.94578 -4.20612 4.16825
HEad  -9.56158 13.1781 -8.33992
LeftShoulder1  8.34765 -12.5478 -45.3295
LeftArm  9.44793 12.6241 -30.9344
LeftForeArm  -179.596 -61.5209 -162.747
LeftHand  -0.244104 0.0205437 5.32207
RightShoulder  5.33425 9.94673 33.7125
RightArm  -7.01059 -57.2746 33.4492
RightForeArm  115.974 74.9936 134.01
RightHand  -0.0990992 -4.81736 -17.1238
LeftUpLeg  8.38292 13.7573 3.8723
LeftLeg  26.728 3.23449 2.18314
LeftFoot  6.05449 0.914719 -6.21487
LeftToes  1.0186e-010 1.09309e-010 2.97394e-011
